<svg width="14" height="14" fill="none" xmlns="http://www.w3.org/2000/svg"><path d="M12.36 2.885H9.458v-.547c0-.904-.736-1.64-1.64-1.64H6.181c-.905 0-1.64.736-1.64 1.64v.547H1.64c-.904 0-1.64.736-1.64 1.64v7.137c0 .904.736 1.64 1.64 1.64h10.72c.904 0 1.64-.736 1.64-1.64V4.526c0-.905-.736-1.64-1.64-1.64zm-6.725-.547c0-.301.245-.546.547-.546h1.636c.302 0 .547.245.547.546v.547h-2.73v-.547zm7.271 9.324a.547.547 0 01-.547.546H1.641a.547.547 0 01-.547-.546v-4.62H2.87v1.475h1.094V7.042h2.488v4.019h1.094v-4.02h2.488v1.476h1.094V7.042h1.777v4.62zm0-5.714H1.094V4.526c0-.302.245-.547.547-.547h10.718c.302 0 .547.245.547.547v1.422z" fill="#154CA2"/></svg>