<svg width="14" height="14" fill="none" xmlns="http://www.w3.org/2000/svg"><path d="M13.792 6.693a9.948 9.948 0 00-.228-.324c-.349-.454-1.164-1.518-2.29-2.45C9.868 2.755 8.429 2.164 7 2.164s-2.867.591-4.275 1.757C1.6 4.85.785 5.915.436 6.37a9.446 9.446 0 00-.228.323L0 7l.208.307c.015.022.154.226.228.324.349.454 1.164 1.518 2.289 2.45C4.133 11.245 5.572 11.836 7 11.836c1.428 0 2.867-.591 4.275-1.757 1.125-.93 1.94-1.995 2.289-2.45.074-.097.213-.3.228-.323L14 7l-.208-.307zM7 10.743c-1.85 0-3.757-1.259-5.67-3.743C3.243 4.516 5.15 3.256 7 3.256S10.757 4.516 12.67 7C10.757 9.484 8.85 10.744 7 10.744z" fill="#666"/><path d="M7 8.066a1.066 1.066 0 100-2.132 1.066 1.066 0 000 2.132z" fill="#666"/><path d="M7 3.885A3.119 3.119 0 003.885 7 3.119 3.119 0 007 10.115 3.119 3.119 0 0010.115 7 3.119 3.119 0 007 3.885zm0 5.137A2.024 2.024 0 014.978 7c0-1.115.907-2.022 2.022-2.022 1.115 0 2.022.907 2.022 2.022A2.024 2.024 0 017 9.022z" fill="#666"/></svg>