<svg width="20" height="20" fill="none" xmlns="http://www.w3.org/2000/svg"><path d="M17.479 16.628A9.957 9.957 0 0020 10a9.96 9.96 0 00-2.715-6.84c0-.002-.003-.002-.004-.004A9.971 9.971 0 0010.347.009L10.15.003C10.101.002 10.051 0 10 0l-.151.003-.195.006A9.972 9.972 0 002.72 3.156l-.005.004v.001A9.958 9.958 0 000 10c0 2.541.954 4.862 2.521 6.628.002.003.002.007.005.01.006.009.015.013.022.02a9.977 9.977 0 007.106 3.333l.194.006c.051.001.101.003.152.003l.151-.003.194-.006a9.977 9.977 0 007.113-3.34c.004-.006.012-.007.016-.013.003-.003.003-.007.005-.01zM.699 10.345h4.138c.04 1.462.325 2.882.833 4.213-.98.354-1.918.83-2.797 1.424a9.268 9.268 0 01-2.175-5.637zM3.06 3.8a12.684 12.684 0 002.726 1.34 12.733 12.733 0 00-.949 4.515H.698a9.27 9.27 0 012.363-5.854zM19.3 9.654h-4.138a12.735 12.735 0 00-.949-4.515A12.694 12.694 0 0016.938 3.8a9.27 9.27 0 012.363 5.854zM9.656 5.16a12.055 12.055 0 01-2.92-.443A12.065 12.065 0 019.654.912V5.16zm0 .69v3.805H5.527c.042-1.5.357-2.953.92-4.302 1.036.3 2.112.467 3.208.496zm.69 0a12.73 12.73 0 003.21-.497c.562 1.349.876 2.803.918 4.302h-4.128V5.85zm0-.69V.912a12.065 12.065 0 012.92 3.805c-.945.266-1.923.414-2.92.443zm3.59-.652A12.734 12.734 0 0011.214.77a9.284 9.284 0 015.235 2.524c-.795.504-1.638.91-2.516 1.213zm-7.87 0a11.983 11.983 0 01-2.514-1.213A9.282 9.282 0 018.786.77a12.73 12.73 0 00-2.72 3.737zm-.538 5.837h4.128v3.461a12.72 12.72 0 00-3.331.532 12.043 12.043 0 01-.797-3.993zm4.128 4.15v4.593a12.06 12.06 0 01-3.063-4.109 12.02 12.02 0 013.063-.483zm.69 4.593v-4.592c1.048.03 2.075.192 3.063.483a12.058 12.058 0 01-3.063 4.11zm0-5.282v-3.461h4.128a12.04 12.04 0 01-.797 3.993 12.704 12.704 0 00-3.331-.532zm4.818-3.461h4.139a9.265 9.265 0 01-2.175 5.637 12.713 12.713 0 00-2.797-1.424c.509-1.331.794-2.751.833-4.213zM3.342 16.499a12.023 12.023 0 012.592-1.304 12.723 12.723 0 002.852 4.034 9.29 9.29 0 01-5.444-2.73zm7.872 2.73a12.715 12.715 0 002.852-4.034 12.03 12.03 0 012.592 1.304 9.29 9.29 0 01-5.444 2.73z" fill="#fff"/></svg>