<svg width="13" height="13" fill="none" xmlns="http://www.w3.org/2000/svg"><g clip-path="url(#clip0)"><path d="M12.367 1.697L10.664 0 7.127 3.53 8.5 4.948a9.67 9.67 0 01-1.58 2.038 9.823 9.823 0 01-2.05 1.587l-1.387-1.37-3.482 3.46 1.694 1.706a2.145 2.145 0 002.451.417c1.25-.606 3.135-1.726 5.023-3.614s3.008-3.774 3.615-5.023a2.152 2.152 0 00-.418-2.451zm-.495 2.008c-.573 1.18-1.631 2.96-3.42 4.75-1.788 1.787-3.569 2.846-4.748 3.418-.43.21-.949.12-1.29-.22l-.977-.985 2.05-2.037L4.668 9.8l.316-.14c.052-.024 1.275-.578 2.653-1.955C9.017 6.324 9.56 5.11 9.582 5.06l.137-.312-1.167-1.205 2.113-2.11.985.982c.342.342.43.86.222 1.29z" fill="#000"/></g><defs><clipPath id="clip0"><path fill="#fff" d="M0 0h13v13H0z"/></clipPath></defs></svg>