<svg width="26" height="15" fill="none" xmlns="http://www.w3.org/2000/svg"><path d="M25.585 12.784a1.71 1.71 0 00-.085-.162c-.432-.775-1.258-1.727-2.477-2.855l-.026-.026-.013-.012-.013-.013h-.013c-.553-.526-.904-.879-1.05-1.06-.269-.344-.33-.693-.182-1.046.103-.267.493-.83 1.167-1.692.355-.457.636-.822.843-1.098 1.496-1.98 2.145-3.247 1.946-3.798l-.077-.129c-.052-.077-.186-.148-.402-.213-.217-.064-.493-.075-.83-.032l-3.736.026a.487.487 0 00-.26.006l-.169.039-.065.032-.051.04a.576.576 0 00-.143.135.883.883 0 00-.13.226 21.05 21.05 0 01-1.387 2.906c-.32.534-.614.997-.883 1.389-.268.392-.492.68-.674.865a4.704 4.704 0 01-.493.446c-.147.112-.26.16-.337.142a9.629 9.629 0 01-.22-.052.86.86 0 01-.292-.316 1.414 1.414 0 01-.15-.504 5.512 5.512 0 01-.045-.523c-.004-.146-.002-.353.007-.62.008-.267.012-.448.012-.543 0-.327.007-.682.02-1.066.013-.383.023-.686.032-.91.01-.224.013-.46.013-.71 0-.25-.015-.446-.045-.588a2.004 2.004 0 00-.136-.414.696.696 0 00-.266-.31 1.502 1.502 0 00-.434-.174c-.459-.104-1.043-.16-1.752-.168-1.608-.017-2.642.086-3.1.31a1.746 1.746 0 00-.493.387c-.155.19-.177.293-.065.31.52.078.886.263 1.103.556l.078.155c.06.112.12.31.181.594.06.284.1.599.117.943.043.629.043 1.167 0 1.615a19.05 19.05 0 01-.123 1.046 2.142 2.142 0 01-.331.891.223.223 0 01-.065.065.976.976 0 01-.35.064c-.121 0-.268-.06-.441-.18a3.107 3.107 0 01-.538-.498 6.648 6.648 0 01-.63-.885 15.42 15.42 0 01-.726-1.343L7.2 3.657c-.13-.24-.307-.592-.532-1.052a20.286 20.286 0 01-.597-1.338.852.852 0 00-.311-.413L5.694.815a.889.889 0 00-.208-.11 1.381 1.381 0 00-.298-.083L1.634.647c-.363 0-.61.082-.74.246L.844.97a.416.416 0 00-.04.207c0 .095.027.211.079.349a42.554 42.554 0 001.692 3.513c.61 1.128 1.14 2.037 1.59 2.726.449.689.907 1.339 1.374 1.95.467.612.776 1.004.927 1.176.152.172.27.301.357.387l.325.31c.207.207.512.455.914.743.402.289.848.573 1.336.853a7.23 7.23 0 001.706.684 5.92 5.92 0 001.894.214h1.491c.303-.026.532-.121.688-.285l.052-.064a.856.856 0 00.097-.24c.03-.107.045-.225.045-.354a4.27 4.27 0 01.084-1.001c.065-.297.139-.521.221-.672a1.65 1.65 0 01.5-.568.845.845 0 01.103-.046c.208-.068.452-.002.733.2.281.203.545.453.792.75.246.297.542.63.888 1.001.346.37.649.646.908.827l.26.155c.172.103.397.198.674.284.276.086.518.108.726.065l3.32-.052c.33 0 .585-.054.766-.161.182-.108.29-.227.324-.356a.996.996 0 00.007-.44 1.626 1.626 0 00-.091-.341z" fill="#fff"/></svg>